<svg width="22" height="21" viewBox="0 0 22 21" fill="none" xmlns="http://www.w3.org/2000/svg">
<path d="M13.8764 16.6168L13.7992 16.5992C13.0775 16.4347 12.5484 15.8316 12.5482 15.1237C12.5482 14.9497 12.6897 14.8082 12.8637 14.8082C13.0376 14.8082 13.1791 14.9497 13.1791 15.1237C13.1793 15.6276 13.6473 16.0133 14.1918 16.0133C14.7363 16.0133 15.2043 15.6276 15.2045 15.1237C15.2045 14.6196 14.7364 14.2331 14.1918 14.233C13.2789 14.233 12.5482 13.544 12.5482 12.7125C12.5484 12.0046 13.0775 11.4014 13.7992 11.2369L13.8764 11.2194V10.9235C13.8764 10.7495 14.0179 10.608 14.1918 10.608C14.3657 10.6081 14.5063 10.7495 14.5063 10.9235V11.2194L14.5844 11.2369C15.3061 11.4014 15.8342 12.0046 15.8344 12.7125C15.8344 12.8864 15.6938 13.0279 15.5199 13.028C15.346 13.028 15.2045 12.8865 15.2045 12.7125C15.2043 12.2086 14.7363 11.8229 14.1918 11.8229C13.6473 11.8229 13.1793 12.2086 13.1791 12.7125C13.1791 13.2166 13.6472 13.6031 14.1918 13.6031C15.1047 13.6032 15.8344 14.2922 15.8344 15.1237C15.8342 15.8316 15.3061 16.4347 14.5844 16.5992L14.5063 16.6168V16.8766C14.5061 17.0503 14.3656 17.191 14.1918 17.191C14.018 17.191 13.8766 17.0504 13.8764 16.8766V16.6168Z" fill="white" stroke="white" stroke-width="0.2"/>
<path d="M16.0644 9.31677C16.1398 9.16007 16.3285 9.09394 16.4853 9.16931C17.3715 9.59529 18.1211 10.259 18.6533 11.0883C19.2 11.9401 19.4892 12.9279 19.4892 13.9447C19.4892 14.8104 19.275 15.6699 18.8711 16.4291C18.8144 16.5352 18.7056 16.5961 18.5927 16.5961C18.5431 16.5961 18.4925 16.5841 18.4453 16.559C18.2917 16.4773 18.2338 16.2867 18.3154 16.1332C18.6712 15.4644 18.8584 14.7075 18.8584 13.9447C18.8584 12.1616 17.8199 10.5106 16.2119 9.73767C16.0552 9.66223 15.9891 9.47353 16.0644 9.31677Z" fill="white" stroke="white" stroke-width="0.2"/>
<path d="M14.8162 8.64905H14.8435C15.0175 8.64987 15.1578 8.79242 15.157 8.96643C15.156 9.13958 15.0155 9.27971 14.8426 9.27991H14.8162L14.7527 9.27307C14.6092 9.24371 14.5008 9.11671 14.5008 8.96448C14.5008 8.7905 14.6422 8.64905 14.8162 8.64905Z" fill="white" stroke="white" stroke-width="0.2"/>
<path d="M9.51627 11.4612C9.59789 11.3077 9.78855 11.2488 9.94205 11.3303C10.0956 11.412 10.1536 11.6035 10.0719 11.7571C9.7163 12.4257 9.52899 13.182 9.52896 13.9446C9.52896 15.7277 10.5675 17.3786 12.1754 18.1516C12.3321 18.227 12.3982 18.4157 12.3229 18.5725C12.2688 18.685 12.1562 18.7511 12.0387 18.7512C11.9931 18.7512 11.9461 18.7412 11.902 18.72C11.0159 18.2939 10.2662 17.6302 9.73404 16.801C9.18739 15.9491 8.8981 14.9614 8.8981 13.9446C8.89813 13.079 9.1124 12.2203 9.51627 11.4612Z" fill="white" stroke="white" stroke-width="0.2"/>
<path d="M13.5473 18.6095H13.5717C13.7454 18.6098 13.8861 18.7512 13.8861 18.9249C13.8861 19.0987 13.7454 19.2401 13.5717 19.2404H13.5443C13.3704 19.2395 13.2291 19.0969 13.2299 18.923C13.2309 18.7493 13.3721 18.6092 13.5473 18.6095Z" fill="white" stroke="white" stroke-width="0.2"/>
<path d="M1.90918 0.0996094H12.0771C13.0745 0.0996621 13.8857 0.911786 13.8857 1.90918C13.8857 2.28836 13.7686 2.64051 13.5684 2.93164L13.4609 3.08789H16.9746C17.9719 3.08807 18.7832 3.90015 18.7832 4.89746C18.7831 5.89467 17.9718 6.70587 16.9746 6.70605H15.7041L15.8115 6.8623C15.8796 6.96183 15.9384 7.06953 15.9863 7.18359L16.0049 7.22852L16.0518 7.24121C18.9878 8.05607 21.1493 10.7529 21.1494 13.9443C21.1494 17.7794 18.0284 20.9004 14.1934 20.9004C12.1914 20.9003 10.3846 20.0492 9.11426 18.6904L9.08496 18.6592H4.15039C3.15296 18.6592 2.34082 17.847 2.34082 16.8496C2.34087 16.277 2.60914 15.7655 3.02637 15.4336L3.12402 15.3555L3.02637 15.2773C2.6091 14.9454 2.34082 14.434 2.34082 13.8613C2.34092 13.2888 2.60922 12.7782 3.02637 12.4463L3.12402 12.3672L3.02637 12.2891C2.6091 11.9571 2.34082 11.4457 2.34082 10.873C2.34096 10.3006 2.60921 9.78989 3.02637 9.45801L3.12402 9.37988L3.02637 9.30078C2.60921 8.96888 2.34094 8.45821 2.34082 7.88574C2.34082 6.88832 3.15297 6.07617 4.15039 6.07617H5.42285L5.31543 5.91992C5.11519 5.62884 4.99712 5.27659 4.99707 4.89746C4.99707 4.51825 5.11518 4.16615 5.31543 3.875L5.42285 3.71777H1.90918C0.911785 3.71777 0.0996595 2.90656 0.0996094 1.90918C0.0996094 0.911754 0.911754 0.0996094 1.90918 0.0996094ZM14.1934 7.61914C10.7058 7.61932 7.86835 10.4568 7.86816 13.9443C7.86816 17.4321 10.7057 20.2694 14.1934 20.2695C17.6812 20.2695 20.5186 17.4322 20.5186 13.9443C20.5184 10.4566 17.6811 7.61914 14.1934 7.61914ZM4.15039 15.6709C3.5002 15.6709 2.97079 16.1994 2.9707 16.8496C2.9707 17.4999 3.50015 18.0293 4.15039 18.0293H8.56445L8.45703 17.8721C8.01722 17.2316 7.68103 16.5146 7.47461 15.7451L7.45508 15.6709H4.15039ZM4.15039 12.6826C3.50025 12.6826 2.97087 13.2112 2.9707 13.8613C2.9707 14.5116 3.50015 15.041 4.15039 15.041H7.32422L7.30762 14.9268C7.26207 14.6058 7.23828 14.2776 7.23828 13.9443C7.2383 13.5543 7.27095 13.1716 7.33301 12.7988L7.35254 12.6826H4.15039ZM4.15039 9.69434C3.5003 9.69434 2.97095 10.2231 2.9707 10.873C2.9707 11.5233 3.50015 12.0527 4.15039 12.0527H7.5L7.52148 11.9805C7.74948 11.2074 8.10796 10.4897 8.57227 9.85352L8.68848 9.69434H4.15039ZM4.15039 6.70605C3.50019 6.70605 2.9707 7.23554 2.9707 7.88574C2.97091 8.53577 3.50032 9.06445 4.15039 9.06445H9.24219L9.27148 9.03516C10.5315 7.77204 12.2729 6.98935 14.1934 6.98926C14.3908 6.98926 14.5867 6.99841 14.7803 7.01465L14.833 6.8252C14.6763 6.74931 14.5011 6.70609 14.3184 6.70605H4.15039ZM6.80664 3.71777C6.1564 3.71777 5.62695 4.24726 5.62695 4.89746C5.62708 5.54755 6.15648 6.07617 6.80664 6.07617H16.9746C17.6246 6.07599 18.1532 5.54744 18.1533 4.89746C18.1533 4.24738 17.6247 3.71795 16.9746 3.71777H6.80664ZM1.90918 0.730469C1.25894 0.730469 0.730469 1.25898 0.730469 1.90918C0.730519 2.55933 1.25897 3.08789 1.90918 3.08789H12.0771C12.7273 3.08784 13.2558 2.5593 13.2559 1.90918C13.2559 1.25901 12.7273 0.730522 12.0771 0.730469H1.90918Z" fill="white" stroke="white" stroke-width="0.2"/>
</svg>
